mtllib model_0.mtl
o model_0
v 0.05343236029148102 0.5673401951789856 0.08783508092164993 
v 0.07869122922420502 0.9518772959709167 0.23617872595787048 
v -0.05343208834528923 0.5673401951789856 0.08783508092164993 
v -0.07869096100330353 0.9518772959709167 0.23617872595787048 
v -0.05343208834528923 0.5673401951789856 0.08783508092164993 
v -0.07869096100330353 0.9518772959709167 0.23617872595787048 
v -0.05343208834528923 0.5673401951789856 -0.08783502131700516 
v -0.07869096100330353 0.9518772959709167 -0.2361786663532257 
v -0.05343208834528923 0.5673401951789856 -0.08783502131700516 
v -0.07869096100330353 0.9518772959709167 -0.2361786663532257 
v 0.05343236029148102 0.5673401951789856 -0.08783502131700516 
v 0.07869122922420502 0.9518772959709167 -0.2361786663532257 
v 0.12337999790906906 0.3419218957424164 -0.24788999557495117 
v 0.12337999790906906 0.3419218957424164 0.24789005517959595 
v 0.12337999790906906 -0.37411269545555115 -0.24788999557495117 
v 0.12337999790906906 -0.37411269545555115 0.24789005517959595 
v -0.12337972968816757 -0.37411269545555115 0.24789005517959595 
v -0.12337972968816757 0.3419218957424164 0.24789005517959595 
v -0.12337972968816757 -0.37411269545555115 -0.24788999557495117 
v -0.12337972968816757 0.3419218957424164 -0.24788999557495117 
v -0.12337972968816757 0.3419218957424164 0.24789005517959595 
v -0.12337972968816757 -0.37411269545555115 0.24789005517959595 
v 0.12337999790906906 0.3419218957424164 0.24789005517959595 
v 0.12337999790906906 -0.37411269545555115 0.24789005517959595 
v -0.12337972968816757 -0.37411269545555115 -0.24788999557495117 
v -0.05343208834528923 -0.7321299910545349 -0.0761236771941185 
v -0.12337972968816757 -0.37411269545555115 0.24789005517959595 
v -0.05343208834528923 -0.7321299910545349 0.07612373679876328 
v -0.12337972968816757 -0.37411269545555115 -0.24788999557495117 
v -0.12337972968816757 0.3419218957424164 -0.24788999557495117 
v 0.12337999790906906 -0.37411269545555115 -0.24788999557495117 
v 0.12337999790906906 0.3419218957424164 -0.24788999557495117 
v 0.12337999790906906 0.3419218957424164 0.24789005517959595 
v 0.05343236029148102 0.5673401951789856 0.08783508092164993 
v -0.12337972968816757 0.3419218957424164 0.24789005517959595 
v -0.05343208834528923 0.5673401951789856 0.08783508092164993 
v -0.05343208834528923 -0.7321299910545349 0.07612373679876328 
v -0.05343208834528923 -0.7321299910545349 -0.0761236771941185 
v 0.05343236029148102 -0.7321299910545349 0.07612373679876328 
v 0.05343236029148102 -0.7321299910545349 -0.0761236771941185 
v 0.12337999790906906 -0.37411269545555115 -0.24788999557495117 
v 0.05343236029148102 -0.7321299910545349 -0.0761236771941185 
v -0.12337972968816757 -0.37411269545555115 -0.24788999557495117 
v -0.05343208834528923 -0.7321299910545349 -0.0761236771941185 
v -0.12337972968816757 -0.37411269545555115 0.24789005517959595 
v -0.05343208834528923 -0.7321299910545349 0.07612373679876328 
v 0.12337999790906906 -0.37411269545555115 0.24789005517959595 
v 0.05343236029148102 -0.7321299910545349 0.07612373679876328 
v 0.12337999790906906 -0.37411269545555115 0.24789005517959595 
v 0.05343236029148102 -0.7321299910545349 0.07612373679876328 
v 0.12337999790906906 -0.37411269545555115 -0.24788999557495117 
v 0.05343236029148102 -0.7321299910545349 -0.0761236771941185 
v -0.05343208834528923 0.5673401951789856 -0.08783502131700516 
v -0.12337972968816757 0.3419218957424164 -0.24788999557495117 
v -0.05343208834528923 0.5673401951789856 0.08783508092164993 
v -0.12337972968816757 0.3419218957424164 0.24789005517959595 
v 0.05343236029148102 0.5673401951789856 -0.08783502131700516 
v 0.12337999790906906 0.3419218957424164 -0.24788999557495117 
v -0.05343208834528923 0.5673401951789856 -0.08783502131700516 
v -0.12337972968816757 0.3419218957424164 -0.24788999557495117 
v 0.05343236029148102 0.5673401951789856 0.08783508092164993 
v 0.12337999790906906 0.3419218957424164 0.24789005517959595 
v 0.05343236029148102 0.5673401951789856 -0.08783502131700516 
v 0.12337999790906906 0.3419218957424164 -0.24788999557495117 
v 0.07869122922420502 0.9518772959709167 0.23617872595787048 
v 0.07869122922420502 0.9518772959709167 -0.2361786663532257 
v -0.07869096100330353 0.9518772959709167 0.23617872595787048 
v -0.07869096100330353 0.9518772959709167 -0.2361786663532257 
v 0.05343236029148102 0.5673401951789856 -0.08783502131700516 
v 0.07869122922420502 0.9518772959709167 -0.2361786663532257 
v 0.05343236029148102 0.5673401951789856 0.08783508092164993 
v 0.07869122922420502 0.9518772959709167 0.23617872595787048 
vn -0.002184694167226553 -0.36165499687194824 0.9323094487190247 
vn -0.002184694167226553 -0.36165499687194824 0.9323094487190247 
vn -0.002184694167226553 -0.36165499687194824 0.9323094487190247 
vn -0.002184694167226553 -0.36165499687194824 0.9323094487190247 
vn -0.9975572824478149 -0.0698285773396492 -0.0018595322035253048 
vn -0.9975572824478149 -0.0698285773396492 -0.0018595322035253048 
vn -0.9975572824478149 -0.0698285773396492 -0.0018595322035253048 
vn -0.9975572824478149 -0.0698285773396492 -0.0018595322035253048 
vn -0.002184694167226553 -0.36165499687194824 -0.9323094487190247 
vn -0.002184694167226553 -0.36165499687194824 -0.9323094487190247 
vn -0.002184694167226553 -0.36165499687194824 -0.9323094487190247 
vn -0.002184694167226553 -0.36165499687194824 -0.9323094487190247 
vn 1 0 -2.0682311115474694e-13 
vn 1 0 -2.0682311115474694e-13 
vn 1 0 -2.0682311115474694e-13 
vn 1 0 -2.0682311115474694e-13 
vn -1 0 0 
vn -1 0 0 
vn -1 0 0 
vn -1 0 0 
vn -0.002184694167226553 0 0.999997615814209 
vn -0.002184694167226553 0 0.999997615814209 
vn -0.002184694167226553 0 0.999997615814209 
vn -0.002184694167226553 0 0.999997615814209 
vn -0.9815762042999268 -0.19107110798358917 5.919202438310969e-14 
vn -0.9815762042999268 -0.19107110798358917 5.919202438310969e-14 
vn -0.9815762042999268 -0.19107110798358917 5.919202438310969e-14 
vn -0.9815762042999268 -0.19107110798358917 5.919202438310969e-14 
vn -0.002184694167226553 -2.0682260971124217e-13 -0.999997615814209 
vn -0.002184694167226553 -2.0682260971124217e-13 -0.999997615814209 
vn -0.002184694167226553 -2.0682260971124217e-13 -0.999997615814209 
vn -0.002184694167226553 -2.0682260971124217e-13 -0.999997615814209 
vn -0.002184694167226553 0.5555689334869385 0.8314676284790039 
vn -0.002184694167226553 0.5555689334869385 0.8314676284790039 
vn -0.002184694167226553 0.5555689334869385 0.8314676284790039 
vn -0.002184694167226553 0.5555689334869385 0.8314676284790039 
vn -0.002184694167226553 -0.999997615814209 3.097898456858039e-13 
vn -0.002184694167226553 -0.999997615814209 3.097898456858039e-13 
vn -0.002184694167226553 -0.999997615814209 3.097898456858039e-13 
vn -0.002184694167226553 -0.999997615814209 3.097898456858039e-13 
vn -0.002184694167226553 -0.4309644401073456 -0.9023662805557251 
vn -0.002184694167226553 -0.4309644401073456 -0.9023662805557251 
vn -0.002184694167226553 -0.4309644401073456 -0.9023662805557251 
vn -0.002184694167226553 -0.4309644401073456 -0.9023662805557251 
vn -0.002184694167226553 -0.4309644401073456 0.9023662805557251 
vn -0.002184694167226553 -0.4309644401073456 0.9023662805557251 
vn -0.002184694167226553 -0.4309644401073456 0.9023662805557251 
vn -0.002184694167226553 -0.4309644401073456 0.9023662805557251 
vn 0.9815762042999268 -0.19106177985668182 -0.00188760319724679 
vn 0.9815762042999268 -0.19106177985668182 -0.00188760319724679 
vn 0.9815762042999268 -0.19106177985668182 -0.00188760319724679 
vn 0.9815762042999268 -0.19106177985668182 -0.00188760319724679 
vn -0.9574540853500366 0.28857946395874023 0.0018809376051649451 
vn -0.9574540853500366 0.28857946395874023 0.0018809376051649451 
vn -0.9574540853500366 0.28857946395874023 0.0018809376051649451 
vn -0.9574540853500366 0.28857946395874023 0.0018809376051649451 
vn -0.002184694167226553 0.5555689334869385 -0.8314676284790039 
vn -0.002184694167226553 0.5555689334869385 -0.8314676284790039 
vn -0.002184694167226553 0.5555689334869385 -0.8314676284790039 
vn -0.002184694167226553 0.5555689334869385 -0.8314676284790039 
vn 0.9574540853500366 0.2885856032371521 -2.984308492600535e-14 
vn 0.9574540853500366 0.2885856032371521 -2.984308492600535e-14 
vn 0.9574540853500366 0.2885856032371521 -2.984308492600535e-14 
vn 0.9574540853500366 0.2885856032371521 -2.984308492600535e-14 
vn -0.002184694167226553 0.999997615814209 -1.0341130485562108e-13 
vn -0.002184694167226553 0.999997615814209 -1.0341130485562108e-13 
vn -0.002184694167226553 0.999997615814209 -1.0341130485562108e-13 
vn -0.002184694167226553 0.999997615814209 -1.0341130485562108e-13 
vn 0.9975572824478149 -0.06975089013576508 0.0037817833945155144 
vn 0.9975572824478149 -0.06975089013576508 0.0037817833945155144 
vn 0.9975572824478149 -0.06975089013576508 0.0037817833945155144 
vn 0.9975572824478149 -0.06975089013576508 0.0037817833945155144 
vt 0.3421105146408081 0.45064589381217957 
vt 0.4420801103115082 0.4442659616470337 
vt 0.3421105146408081 0.4764956831932068 
vt 0.4420801103115082 0.4827656149864197 
vt 0.47808870673179626 0.5761547684669495 
vt 0.4420801103115082 0.4827656149864197 
vt 0.5219092965126038 0.5761547684669495 
vt 0.5579178929328918 0.4827656149864197 
vt 0.6578875184059143 0.4764956831932068 
vt 0.5579178929328918 0.4827656149864197 
vt 0.6578875184059143 0.45064589381217957 
vt 0.5579178929328918 0.4442659616470337 
vt 0.5609694719314575 0.29037734866142273 
vt 0.4390285611152649 0.2904873490333557 
vt 0.5609694719314575 0.11657894402742386 
vt 0.4390285611152649 0.11657894402742386 
vt 0.4390285611152649 0.8104526400566101 
vt 0.4390285611152649 0.6366541981697083 
vt 0.5609694719314575 0.8104526400566101 
vt 0.5609694719314575 0.6366541981697083 
vt 0.27229049801826477 0.49387550354003906 
vt 0.09847278147935867 0.49387550354003906 
vt 0.27229049801826477 0.4331560730934143 
vt 0.09847278147935867 0.4331560730934143 
vt 0.5609694719314575 0.8104526400566101 
vt 0.5187357068061829 0.9010918140411377 
vt 0.4390285611152649 0.8104526400566101 
vt 0.48126235604286194 0.9010918140411377 
vt 0.9015252590179443 0.49387550354003906 
vt 0.72770756483078 0.49387550354003906 
vt 0.9015252590179443 0.4331560730934143 
vt 0.72770756483078 0.4331560730934143 
vt 0.27229049801826477 0.4331560730934143 
vt 0.3421105146408081 0.45064589381217957 
vt 0.27229049801826477 0.49387550354003906 
vt 0.3421105146408081 0.4764956831932068 
vt 0.48126235604286194 0.00009000000136438757 
vt 0.5187357068061829 0.00009000000136438757 
vt 0.48126235604286194 0.025939764454960823 
vt 0.5187357068061829 0.025939764454960823 
vt 0.9015252590179443 0.4331560730934143 
vt 0.9999080300331116 0.45064589381217957 
vt 0.9015252590179443 0.49387550354003906 
vt 0.9999080300331116 0.4764956831932068 
vt 0.09847278147935867 0.49387550354003906 
vt 0.00009000000136438757 0.4764956831932068 
vt 0.09847278147935867 0.4331560730934143 
vt 0.00009000000136438757 0.45064589381217957 
vt 0.4390285611152649 0.11657894402742386 
vt 0.48126235604286194 0.025939764454960823 
vt 0.5609694719314575 0.11657894402742386 
vt 0.5187357068061829 0.025939764454960823 
vt 0.5219092965126038 0.5761547684669495 
vt 0.5609694719314575 0.6366541981697083 
vt 0.47808870673179626 0.5761547684669495 
vt 0.4390285611152649 0.6366541981697083 
vt 0.6578875184059143 0.45064589381217957 
vt 0.72770756483078 0.4331560730934143 
vt 0.6578875184059143 0.4764956831932068 
vt 0.72770756483078 0.49387550354003906 
vt 0.47808870673179626 0.3508768081665039 
vt 0.4390285611152649 0.2904873490333557 
vt 0.5219092965126038 0.3508768081665039 
vt 0.5609694719314575 0.29037734866142273 
vt 0.4420801103115082 0.4442659616470337 
vt 0.5579178929328918 0.4442659616470337 
vt 0.4420801103115082 0.4827656149864197 
vt 0.5579178929328918 0.4827656149864197 
vt 0.5219092965126038 0.3508768081665039 
vt 0.5579178929328918 0.4442659616470337 
vt 0.47808870673179626 0.3508768081665039 
vt 0.4420801103115082 0.4442659616470337 
s on 
f 1/1/1 2/2/2 3/3/3 
f 2/2/2 4/4/4 3/3/3 
f 3/3/3 4/4/4 4/4/4 
f 4/4/4 5/5/5 4/4/4 
f 4/4/4 5/5/5 5/5/5 
f 5/5/5 6/6/6 5/5/5 
f 5/5/5 6/6/6 7/7/7 
f 6/6/6 8/8/8 7/7/7 
f 7/7/7 8/8/8 8/8/8 
f 8/8/8 9/9/9 8/8/8 
f 8/8/8 9/9/9 9/9/9 
f 9/9/9 10/10/10 9/9/9 
f 9/9/9 10/10/10 11/11/11 
f 10/10/10 12/12/12 11/11/11 
f 11/11/11 12/12/12 12/12/12 
f 12/12/12 13/13/13 12/12/12 
f 12/12/12 13/13/13 13/13/13 
f 13/13/13 14/14/14 13/13/13 
f 13/13/13 14/14/14 15/15/15 
f 14/14/14 16/16/16 15/15/15 
f 15/15/15 16/16/16 16/16/16 
f 16/16/16 17/17/17 16/16/16 
f 16/16/16 17/17/17 17/17/17 
f 17/17/17 18/18/18 17/17/17 
f 17/17/17 18/18/18 19/19/19 
f 18/18/18 20/20/20 19/19/19 
f 19/19/19 20/20/20 20/20/20 
f 20/20/20 21/21/21 20/20/20 
f 20/20/20 21/21/21 21/21/21 
f 21/21/21 22/22/22 21/21/21 
f 21/21/21 22/22/22 23/23/23 
f 22/22/22 24/24/24 23/23/23 
f 23/23/23 24/24/24 24/24/24 
f 24/24/24 25/25/25 24/24/24 
f 24/24/24 25/25/25 25/25/25 
f 25/25/25 26/26/26 25/25/25 
f 25/25/25 26/26/26 27/27/27 
f 26/26/26 28/28/28 27/27/27 
f 27/27/27 28/28/28 28/28/28 
f 28/28/28 29/29/29 28/28/28 
f 28/28/28 29/29/29 29/29/29 
f 29/29/29 30/30/30 29/29/29 
f 29/29/29 30/30/30 31/31/31 
f 30/30/30 32/32/32 31/31/31 
f 31/31/31 32/32/32 32/32/32 
f 32/32/32 33/33/33 32/32/32 
f 32/32/32 33/33/33 33/33/33 
f 33/33/33 34/34/34 33/33/33 
f 33/33/33 34/34/34 35/35/35 
f 34/34/34 36/36/36 35/35/35 
f 35/35/35 36/36/36 36/36/36 
f 36/36/36 37/37/37 36/36/36 
f 36/36/36 37/37/37 37/37/37 
f 37/37/37 38/38/38 37/37/37 
f 37/37/37 38/38/38 39/39/39 
f 38/38/38 40/40/40 39/39/39 
f 39/39/39 40/40/40 40/40/40 
f 40/40/40 41/41/41 40/40/40 
f 40/40/40 41/41/41 41/41/41 
f 41/41/41 42/42/42 41/41/41 
f 41/41/41 42/42/42 43/43/43 
f 42/42/42 44/44/44 43/43/43 
f 43/43/43 44/44/44 44/44/44 
f 44/44/44 45/45/45 44/44/44 
f 44/44/44 45/45/45 45/45/45 
f 45/45/45 46/46/46 45/45/45 
f 45/45/45 46/46/46 47/47/47 
f 46/46/46 48/48/48 47/47/47 
f 47/47/47 48/48/48 48/48/48 
f 48/48/48 49/49/49 48/48/48 
f 48/48/48 49/49/49 49/49/49 
f 49/49/49 50/50/50 49/49/49 
f 49/49/49 50/50/50 51/51/51 
f 50/50/50 52/52/52 51/51/51 
f 51/51/51 52/52/52 52/52/52 
f 52/52/52 53/53/53 52/52/52 
f 52/52/52 53/53/53 53/53/53 
f 53/53/53 54/54/54 53/53/53 
f 53/53/53 54/54/54 55/55/55 
f 54/54/54 56/56/56 55/55/55 
f 55/55/55 56/56/56 56/56/56 
f 56/56/56 57/57/57 56/56/56 
f 56/56/56 57/57/57 57/57/57 
f 57/57/57 58/58/58 57/57/57 
f 57/57/57 58/58/58 59/59/59 
f 58/58/58 60/60/60 59/59/59 
f 59/59/59 60/60/60 60/60/60 
f 60/60/60 61/61/61 60/60/60 
f 60/60/60 61/61/61 61/61/61 
f 61/61/61 62/62/62 61/61/61 
f 61/61/61 62/62/62 63/63/63 
f 62/62/62 64/64/64 63/63/63 
f 63/63/63 64/64/64 64/64/64 
f 64/64/64 65/65/65 64/64/64 
f 64/64/64 65/65/65 65/65/65 
f 65/65/65 66/66/66 65/65/65 
f 65/65/65 66/66/66 67/67/67 
f 66/66/66 68/68/68 67/67/67 
f 67/67/67 68/68/68 68/68/68 
f 68/68/68 69/69/69 68/68/68 
f 68/68/68 69/69/69 69/69/69 
f 69/69/69 70/70/70 69/69/69 
f 69/69/69 70/70/70 71/71/71 
f 70/70/70 72/72/72 71/71/71 

